<svg xmlns="http://www.w3.org/2000/svg" width="1400" height="380" viewBox="0 0 1400 380"><rect width="1400" height="380" rx="20" fill="#e9eeeb"/><text x="48" y="64" font-family="sans-serif" font-size="28" fill="#234237">自动跟踪与人工验收，共同完成标注</text><text x="48" y="100" font-family="sans-serif" font-size="17" fill="#6c7d70">公开流程示意 · 跑完不是标对 · 近似区域必须说明口径</text><g fill="#fff" stroke="#c6d2c6"><rect x="48" y="160" width="250" height="110" rx="12"/><rect x="386" y="160" width="250" height="110" rx="12"/><rect x="724" y="160" width="250" height="110" rx="12"/><rect x="1062" y="160" width="290" height="110" rx="12"/></g><g font-family="sans-serif" font-size="22" fill="#234237"><text x="73" y="205">切片与区域初始化</text><text x="411" y="205">逐帧跟踪与异常</text><text x="749" y="205">关键帧与范围修复</text><text x="1087" y="205">保存、备份与导出</text></g><g font-family="sans-serif" font-size="16" fill="#6c7d70"><text x="73" y="240">时间边界 · 多边形 / 直线</text><text x="411" y="240">恢复尝试 · 标记待复核</text><text x="749" y="240">草稿预览 · 保留正常帧</text><text x="1087" y="240">坐标、时间戳与审核状态</text></g><g stroke="#50735e" stroke-width="3"><path d="M310 215h62m-9-7 9 7-9 7M648 215h62m-9-7 9 7-9 7M986 215h62m-9-7 9 7-9 7"/></g><text x="48" y="335" font-family="sans-serif" font-size="17" fill="#6c7d70">真实研究验证另行完成；合成视频只用于检查流程与展示界面</text></svg>